<?xml version="1.0" encoding="utf-8"?>
<!-- Generator: Adobe Illustrator 28.0.0, SVG Export Plug-In . SVG Version: 6.00 Build 0)  -->
<svg version="1.1" id="Layer_1" xmlns="http://www.w3.org/2000/svg" xmlns:xlink="http://www.w3.org/1999/xlink" x="0px" y="0px"
	 viewBox="0 0 200 118.28" style="enable-background:new 0 0 200 118.28;" xml:space="preserve">
<style type="text/css">
	.st0{fill:#FFFFFF;}
</style>
<g>
	<path class="st0" d="M100.03,0c14.51,0.09,28.8,1.81,42.8,5.73c10.13,2.83,19.81,6.72,28.83,12.17c5.66,3.42,10.89,7.4,15.47,12.19
		c4.31,4.52,7.85,9.56,10.18,15.39c2.12,5.29,3.02,10.77,2.58,16.45c-0.45,5.85-2.29,11.28-5.21,16.35
		c-3.01,5.22-6.92,9.7-11.41,13.68c-6.35,5.62-13.51,9.99-21.17,13.57c-8.54,4-17.46,6.87-26.65,8.93
		c-4.31,0.97-8.65,1.75-13.03,2.33c-4.57,0.61-9.16,1.02-13.77,1.26c-5.01,0.25-10.02,0.31-15.02,0.1
		c-3.65-0.16-7.3-0.45-10.94-0.78c-6.36-0.57-12.65-1.64-18.88-3.07c-11.62-2.67-22.77-6.61-33.18-12.51
		c-6.55-3.71-12.58-8.1-17.79-13.57c-4.43-4.65-8.03-9.84-10.35-15.87c-1.95-5.06-2.78-10.31-2.4-15.72
		c0.4-5.58,2.06-10.8,4.74-15.7c3.06-5.6,7.16-10.36,11.91-14.56c6.63-5.87,14.14-10.37,22.17-14.03c9.21-4.2,18.83-7.12,28.74-9.12
		c7.82-1.58,15.72-2.55,23.69-2.92C94.24,0.16,97.14,0.1,100.03,0z M100.01,115.55c3.06-0.11,6.13-0.19,9.19-0.34
		c9.07-0.46,18.03-1.7,26.88-3.76c10.38-2.42,20.37-5.9,29.78-10.93c6.13-3.28,11.85-7.14,16.93-11.92
		c4.53-4.26,8.36-9.05,11.01-14.71c3.51-7.48,4.35-15.24,2.26-23.26c-1.44-5.5-4.14-10.37-7.66-14.81
		c-3.77-4.76-8.26-8.75-13.2-12.25c-6.77-4.79-14.12-8.48-21.84-11.43c-11.73-4.49-23.9-7.11-36.36-8.43
		c-4.48-0.47-8.97-0.74-13.47-0.83c-7.91-0.17-15.81,0.23-23.66,1.18c-5.14,0.63-10.23,1.51-15.28,2.66
		c-8.93,2.04-17.6,4.87-25.9,8.79c-7.05,3.33-13.67,7.36-19.58,12.48c-4.5,3.9-8.41,8.29-11.39,13.47C5.02,46.19,3.3,51.24,2.9,56.7
		c-0.44,6.03,0.72,11.76,3.3,17.21c2.58,5.47,6.25,10.14,10.59,14.3c4.87,4.66,10.36,8.47,16.25,11.72
		c8.68,4.78,17.88,8.2,27.46,10.68C73.45,113.96,86.64,115.45,100.01,115.55z"/>
	<path class="st0" d="M98.24,114.29c-1.94-0.08-5.62-0.14-9.3-0.38c-10.64-0.71-21.11-2.4-31.37-5.33
		c-8.49-2.42-16.68-5.62-24.4-9.94c-5.43-3.03-10.5-6.55-15.02-10.84c-4.62-4.38-8.49-9.3-11.07-15.17
		C4.8,67.46,3.84,62.05,4.31,56.42c0.46-5.48,2.28-10.52,5.11-15.22c3.28-5.45,7.58-9.97,12.5-13.94
		c7.09-5.72,15.03-9.98,23.46-13.35c9.74-3.9,19.84-6.45,30.2-8.02c5.01-0.76,10.04-1.26,15.1-1.55c5.88-0.34,11.76-0.36,17.64-0.07
		c10.77,0.54,21.39,2.08,31.81,4.86c8.95,2.38,17.58,5.6,25.73,10.04c5.46,2.97,10.59,6.42,15.18,10.62
		c4.72,4.31,8.71,9.18,11.46,15c2.57,5.43,3.69,11.14,3.19,17.14c-0.45,5.4-2.22,10.37-4.98,15.01c-3.23,5.44-7.49,9.97-12.37,13.95
		c-6.98,5.68-14.79,9.92-23.09,13.31c-8.29,3.38-16.86,5.76-25.64,7.4c-5.12,0.96-10.27,1.64-15.46,2.08
		C109.43,114.06,104.72,114.26,98.24,114.29z M153.39,94.9c-0.2-0.2-0.37-0.43-0.6-0.59c-0.6-0.42-1.33-0.35-1.86,0.13
		c-0.49,0.45-0.64,1.18-0.35,1.78c0.28,0.6,0.95,0.95,1.6,0.85c0.69-0.11,1.23-0.67,1.28-1.37c0.02-0.27-0.06-0.55-0.09-0.83
		c0.19,0.16,0.37,0.35,0.58,0.48c0.59,0.38,1.36,0.3,1.87-0.19c0.5-0.48,0.61-1.26,0.25-1.86c-0.34-0.58-1.04-0.88-1.66-0.71
		c-0.73,0.2-1.21,0.83-1.17,1.55C153.25,94.41,153.34,94.65,153.39,94.9z M181.41,57.88c0.02-0.25,0.05-0.5,0.04-0.75
		c-0.02-0.72-0.51-1.3-1.18-1.43c-0.71-0.13-1.38,0.19-1.68,0.81c-0.3,0.62-0.14,1.39,0.38,1.83c0.53,0.45,1.3,0.49,1.86,0.07
		c0.22-0.16,0.41-0.37,0.61-0.56c-0.05,0.22-0.12,0.43-0.15,0.65c-0.12,0.73,0.28,1.41,0.97,1.67c0.65,0.25,1.38,0.02,1.78-0.56
		c0.39-0.56,0.34-1.35-0.12-1.86c-0.49-0.55-1.27-0.68-1.91-0.3C181.8,57.57,181.61,57.73,181.41,57.88z M78.72,70.91
		c0.69,0,1.26,0,1.93,0c0,4.2,0,8.32,0,12.43c1.03,0.18,2.99,0.14,3.65-0.08c0-7.22,0-14.47,0-21.74c0.37-0.05,0.66-0.08,1.03-0.13
		c0-2.29,0-4.53,0-6.79c0.3-0.08,0.54-0.14,0.76-0.19c0.16-0.92,0.31-1.81,0.5-2.86c0.21,0.19,0.42,0.28,0.44,0.41
		c0.13,0.73,0.21,1.48,0.31,2.21c0.01,0.08,0.05,0.15,0.08,0.23c0.22,0.06,0.43,0.13,0.69,0.2c0,1.14-0.01,2.27,0,3.39
		c0.01,1.14-0.06,2.28,0.05,3.45c0.44-0.02,0.77-0.04,1.16-0.06c0-0.4,0-0.7,0-1.01c0-6.64,0-13.28,0-19.92
		c0-0.31,0.01-0.62,0.08-0.92c0.3-1.19,0.8-2.32,1-3.55c0.05-0.34,0.21-0.65,0.38-1.16c0.59,2.1,1.13,4,1.68,5.96
		c0.72,0,1.5,0,2.39,0c0.07-3.43-0.02-6.81,0.05-10.17c0.3-0.08,0.51-0.14,0.66-0.18c0.18-0.34-0.09-0.98,0.65-0.75
		c0.06,0.27,0.11,0.53,0.17,0.78c0.69-0.01,0.71-0.01,0.71-0.54c0.01-0.84,0-1.69,0.01-2.53c0-0.16-0.04-0.35,0.03-0.5
		c0.05-0.13,0.16-0.2,0.24-0.32c0.19-0.26,0.19-0.58,0.24-0.88c0.76-4.77,1.51-9.55,2.26-14.33c0.03-0.17,0.11-0.32,0.23-0.67
		c0.78,4.93,1.52,9.66,2.27,14.38c0.05,0.3,0.02,0.62,0.09,0.92c0.06,0.25,0.22,0.42,0.34,0.64c0.26,0.48,0.18,1.03,0.19,1.55
		c0.02,0.75,0.01,1.5,0.01,2.28c0.3,0,0.48,0,0.62,0c0.3-0.25-0.08-1.01,0.72-0.79c0.04,0.25,0.07,0.49,0.11,0.74
		c0.25,0.07,0.48,0.14,0.74,0.22c0,1.71-0.03,3.43-0.03,5.14c0,0.83,0.02,1.67,0.03,2.5c0.02,0.84-0.1,1.69,0.09,2.52
		c0.85,0.04,1.65,0.08,2.3,0c0.57-2.02,1.1-3.9,1.64-5.8c0.09,0.06,0.16,0.08,0.17,0.12c0.27,0.92,0.61,1.82,0.79,2.76
		c0.18,0.94,0.6,1.82,0.59,2.82c-0.04,6.64-0.02,13.28-0.02,19.92c0,0.24,0.04,0.49,0.06,0.74c0.41,0,0.75,0,1.17,0
		c0-2.31,0-4.56,0-6.78c0.28-0.09,0.48-0.16,0.65-0.21c0.16-0.93,0.31-1.79,0.45-2.65c0.31-0.1,0.49-0.04,0.53,0.32
		c0.09,0.77,0.2,1.53,0.3,2.34c0.23,0.06,0.47,0.12,0.79,0.21c0,2.27,0,4.53,0,6.8c0.4,0.05,0.69,0.09,1.08,0.15
		c0,5.74-0.02,11.47,0,17.21c0.01,1.57-0.03,3.13,0.02,4.7c0.67,0,1.23,0,1.79,0c0.58,0,1.16-0.01,1.82-0.01c0-4.24,0-8.36,0-12.53
		c0.66,0,1.24,0,1.87,0c0.03,0.6,0.06,1.15,0.1,1.75c0.37,0,0.69,0,1.07,0c0.03-0.59,0.05-1.14,0.08-1.75c0.66,0,1.25,0,1.9,0
		c0.03,0.61,0.06,1.16,0.08,1.75c0.44,0,0.82,0,1.25,0c0.03-0.6,0.06-1.15,0.09-1.73c0.63,0,1.21,0,1.84,0
		c0.03,0.59,0.07,1.14,0.1,1.72c0.49,0,0.91,0,1.4,0c0-0.57,0.01-1.14,0.03-1.7c0.67,0,1.24,0,1.87,0c0.01,4.2-0.01,8.32,0.01,12.46
		c0.56,0.04,0.99,0.07,1.45,0.1c0,1.02,0,1.94,0,2.83c0.47,0.29,0.86,0.22,1.28-0.03c0.8-0.47,1.59-0.95,2.53-1.12
		c1.3-0.23,1.94,0.22,2.07,1.52c0.13,1.27-0.12,2.46-0.72,3.58c-0.12,0.23-0.4,0.44-0.11,0.84c0.22-0.17,0.45-0.3,0.63-0.49
		c1.13-1.18,2.41-2.19,3.75-3.13c0.83-0.59,1.59-1.26,2.11-2.16c0.56-0.97,1.15-1.94,1.68-2.93c1.39-2.58,2.43-5.32,3.36-8.09
		c0.67-1.99,1.11-4.07,1.49-6.14c0.35-1.87,0.49-3.79,0.72-5.69c0.18-1.43,0.25-2.86,0.1-4.29c-0.1-0.98-0.19-1.96-0.29-2.94
		c-0.13-1.32-0.18-2.65-0.41-3.94c-0.29-1.6-0.7-3.18-1.13-4.75c-1.16-4.25-2.75-8.33-5.03-12.11c-0.78-1.3-1.63-2.57-2.52-3.8
		c-1.99-2.77-4.2-5.35-6.73-7.66c-3.13-2.87-6.61-5.23-10.26-7.37c-3.64-2.14-7.49-3.74-11.57-4.77c-1.71-0.43-3.43-0.87-5.18-1.16
		c-1.63-0.27-3.3-0.35-4.95-0.5c-3.35-0.31-6.7-0.26-10.03,0.13c-3.6,0.42-7.13,1.23-10.57,2.43c-4.68,1.63-9.08,3.75-13.16,6.57
		c-3.06,2.11-5.75,4.61-8.26,7.31c-2.02,2.16-3.76,4.55-5.35,7.05c-1.67,2.62-3.08,5.38-4.17,8.27c-1.76,4.67-3.03,9.47-3.29,14.5
		c-0.2,3.87,0,7.71,0.63,11.52c0.68,4.15,1.81,8.18,3.64,11.99c0.21,0.44,0.44,0.72,0.95,0.83c0.8,0.18,1.57,0.47,2.17,1.06
		c1.02,1.01,2.05,2.01,2.56,3.41c0.24,0.66,0.54,1.29,0.8,1.95c0.23,0.6,0.54,0.86,1.19,0.87c0.3,0,0.61-0.07,0.91-0.13
		c0.94-0.2,1.86-0.44,2.8-0.61c0.94-0.17,1.85-0.05,2.69,0.43c0.19,0.11,0.39,0.19,0.64,0.3c0-1.24,0-2.4,0-3.61
		c0.48-0.04,0.91-0.08,1.43-0.13c0-4.18,0-8.3,0-12.47c0.67,0,1.25,0,1.93,0c0,0.59,0,1.15,0,1.73c0.53,0,0.95,0,1.48,0
		c0-0.62,0-1.17,0-1.7c0.68,0,1.26,0,1.87,0c0.04,0.61,0.07,1.15,0.11,1.73c0.42,0,0.78,0,1.19,0c0.03-0.6,0.05-1.15,0.08-1.75
		c0.65,0,1.25,0,1.9,0c0.03,0.61,0.06,1.15,0.08,1.73c0.4,0,0.75,0,1.15,0C78.72,72.03,78.72,71.5,78.72,70.91z M53.05,28.29
		c-0.37-0.17-0.62-0.29-0.87-0.4c-3.01-1.26-6.01-2.52-9.02-3.78c-1.43-0.6-2.85-1.2-4.28-1.8c-0.3-0.13-0.55-0.21-0.86-0.06
		c-0.28,0.13-0.53,0.34-0.8,0.49c-0.6,0.36-1.22,0.69-1.84,1.03c-1.18,0.65-2.33,1.33-3.47,2.05c-2.28,1.45-4.47,3.05-6.54,4.79
		c-3.13,2.63-5.93,5.6-8.33,8.92c-1.5,2.08-2.9,4.21-3.8,6.63c-0.04,0.11-0.09,0.21-0.13,0.31c-0.48,1.31-0.98,2.62-1.38,3.96
		c-0.4,1.34-0.58,2.68-0.76,4.06c0.99,0.12,1.85,0.26,2.45-0.63c0.07-0.11,0.21-0.18,0.33-0.26c2-1.22,5.37-1.32,7.01,0.84
		c0.38,0.5,1.02,0.46,1.58,0.46c0.75,0,1.5,0,2.25,0c1.55,0,3.09,0,4.64,0c3.11,0,6.23,0,9.34,0c0.87,0,1.73,0,2.6,0
		c0.87,0,1.74,0.03,2.6-0.08c0.39-4.77,1.43-9.33,2.93-13.8C48.22,36.52,50.5,32.39,53.05,28.29z M188.97,55.85
		c-0.57-2.93-1.15-5.87-2.6-8.56c-0.27-0.49-0.52-1-0.76-1.51c-1.43-3-3.37-5.67-5.52-8.15c-1.58-1.82-3.4-3.44-5.21-5.03
		c-3.62-3.19-7.55-5.95-11.74-8.34c-0.55-0.31-0.99-0.33-1.57-0.09c-4.23,1.76-8.47,3.5-12.71,5.24c-0.25,0.1-0.5,0.23-0.81,0.37
		c0.18,0.32,0.32,0.59,0.48,0.85c0.42,0.7,0.9,1.36,1.27,2.09c1.27,2.47,2.53,4.94,3.56,7.54c1.07,2.71,1.94,5.46,2.52,8.29
		c0.39,1.92,0.58,3.89,0.86,5.84c0.1,0.71,0.21,1.43,0.31,2.15c0.29,0.02,0.49,0.03,0.68,0.03c2.9,0,5.8,0,8.69,0
		c2.33,0,4.67-0.01,7,0.01c0.48,0,0.72-0.17,1.01-0.56c0.94-1.26,1.95-2.47,2.95-3.68c0.14-0.17,0.37-0.26,0.56-0.38
		c0,1.12,0,2.13,0,3.21c0.31-0.11,0.6-0.2,0.88-0.32c0.9-0.38,1.82-0.42,2.72-0.08c0.62,0.23,1.33,0.5,1.74,0.97
		c0.73,0.86,1.6,0.91,2.57,0.84c0.58-0.04,1.17,0.08,1.75-0.04C188.11,56.44,188.58,56.19,188.97,55.85z M102.11,106.94
		c0.24-0.42,0.39-0.74,0.59-1.03c0.25-0.37,0.56-0.7,0.82-1.07c0.59-0.84,1.36-1.04,2.28-0.57c0.95,0.48,1.88,1.01,2.85,1.44
		c0.82,0.36,1.67,0.66,2.53,0.91c0.94,0.27,1.91,0.5,2.87,0.68c1.05,0.19,2.1,0.39,3.16,0.44c1.26,0.05,2.53-0.01,3.79-0.09
		c2.08-0.14,4.15-0.39,6.22-0.49c1.39-0.07,2.73-0.31,4.05-0.72c0.62-0.19,1.25-0.31,1.88-0.48c0.16-0.04,0.3-0.15,0.51-0.26
		c-0.29-0.21-0.51-0.26-0.87-0.32c-2.3-0.39-4.43-1.16-6.32-2.59c-1.68-1.27-3.41-2.49-5.18-3.63c-1.29-0.83-2.62-1.67-4.17-1.98
		c-0.69-0.14-1.39-0.18-2.08-0.3c-3.22-0.55-6.05,0.41-8.66,2.23c-0.07,0.05-0.14,0.1-0.19,0.16c-0.85,1.12-1.73,2.21-2.54,3.36
		c-0.7,0.99-1.31,2.03-1.98,3.04c-0.2,0.29-0.48,0.53-0.75,0.82c-0.47-0.25-0.88-0.5-1.31-0.69c-0.76-0.33-1.29-0.88-1.63-1.63
		c-0.49-1.07-0.98-2.14-1.48-3.21c-0.18-0.39-0.39-0.74-0.87-0.73c-0.13-1.18-0.49-1.6-1.57-1.98c-0.41-0.15-0.97-0.13-1.05-0.78
		c-0.01-0.1-0.25-0.19-0.4-0.26c-0.21-0.09-0.44-0.11-0.63-0.23c-0.79-0.47-1.49-0.28-2.19,0.21c-0.69,0.48-1.41,0.93-2.13,1.37
		c-0.97,0.6-1.76,0.54-2.64-0.18c-0.17-0.14-0.32-0.31-0.48-0.47c-1.44-1.47-3.2-2.02-5.23-1.79c-0.66,0.08-1.25,0.32-1.72,0.81
		c-0.12,0.12-0.23,0.28-0.38,0.33c-0.79,0.24-1.21,0.88-1.68,1.46c-0.21,0.26-0.43,0.52-0.66,0.77c-0.7,0.76-1.46,1.42-2.62,1.15
		c-0.05-0.01-0.11,0-0.17,0c-1.13,0.09-1.99,0.62-2.4,1.69c-0.51,1.31-0.49,2.51,0.58,3.66c0.66,0.71,1.32,0.87,2.16,0.72
		c0.55-0.1,1.11-0.22,1.63-0.4c0.76-0.26,1.5-0.29,2.19,0.12c0.38,0.22,0.72,0.52,1.04,0.83c0.47,0.46,0.8,1.11,1.62,1
		c0.09-0.01,0.21,0.07,0.3,0.14c0.75,0.57,1.63,0.12,2.32-0.31c0.85-0.54,1.68-1.11,2.52-1.68c0.43-0.29,0.89-0.35,1.36-0.12
		c0.63,0.31,1.3,0.57,1.85,0.99c0.47,0.36,0.97,0.54,1.51,0.7c0.41,0.13,0.71,0.01,0.93-0.36c0.26-0.43,0.52-0.86,0.8-1.28
		c0.78-1.11,1.56-2.22,3.11-2.32c1.23-0.08,2.36,0.2,3.35,0.89c1.13,0.79,1.01,1.9-0.27,2.45c-0.54,0.23-1.12,0.35-1.69,0.52
		c-0.18,0.06-0.44,0.06-0.52,0.19c-0.3,0.47-0.79,0.62-1.24,0.82c-0.59,0.27-1,0.95-1.01,1.66c0.86,0.14,1.71,0.28,2.56,0.4
		c0.45,0.06,0.82-0.05,1.02-0.54c0.13-0.34,0.32-0.67,0.54-0.95c0.58-0.76,1.19-1.53,2.15-1.82c1.21-0.36,2.36-0.21,3.52,0.33
		c1.19,0.56,2.26,1.32,3.15,2.23c0.78,0.78,1.57,0.84,2.51,0.71c0.47-0.07,0.95-0.11,1.42-0.19c0.17-0.03,0.32-0.15,0.5-0.25
		C107.51,108.45,104.92,107.61,102.11,106.94z M70.05,99.29c0.36-0.03,0.53-0.04,0.7-0.07c1.32-0.23,2.19-1.11,2.89-2.16
		c0.19-0.28,0.14-0.76,0.09-1.13c-0.04-0.32-0.23-0.63-0.35-0.95c-0.22-0.59-0.66-0.87-1.27-0.97c-0.58-0.1-1.16-0.22-1.73-0.38
		c-1.11-0.31-2.22-1.38-2.21-2.83c0.02-1.98-1.98-3.45-3.9-2.98c-0.44,0.1-0.86,0.25-1.3,0.36c-0.62,0.16-1.24,0.4-1.88,0.44
		c-1.63,0.11-2.89-0.95-3.33-2.63c-0.37-1.45-1.23-2.79-2.38-3.75c-1.2-1-2.75-1.4-4.29-1.23c-0.6,0.06-1.21,0.25-1.78,0.47
		c-1.43,0.55-2.81,0.41-4.19-0.15c-0.18-0.07-0.36-0.18-0.54-0.23c-0.21-0.05-0.46-0.12-0.66-0.06c-0.61,0.19-1.24,0.39-1.81,0.69
		c-0.72,0.38-1.01,1.13-1.24,1.85c-0.18,0.56,0.32,0.94,0.62,1.32c0.92,1.17,2.26,2.18,2.76,3.62c0.25,0.71,0.24,1.48-0.01,2.18
		c-0.27,0.76-0.58,1.55-0.96,2.26c-0.26,0.49-0.22,0.89,0.01,1.35c0.37,0.74,0.95,1.31,1.68,1.6c0.71,0.29,1.5,0.74,2.3,0.11
		c0.13-0.11,0.39-0.14,0.56-0.1c0.55,0.15,1.05-0.01,1.57-0.13c0.93-0.22,1.86-0.42,2.8-0.61c1-0.2,2.13,0.2,2.81,0.96
		c0.66,0.74,1,1.75,1.4,2.64c0.44,0.99,1.07,1.79,2.16,2.07c1.09,0.28,2.34,0.1,3.34-0.39c1.31-0.64,2.59-1.36,4.02-1.75
		c0.98-0.27,1.91-0.38,2.85,0.16C69.22,99.13,69.74,99.2,70.05,99.29z M27.36,60.7c0.02,0,0.05-0.01,0.07-0.01
		c0-0.25,0.02-0.51,0-0.76c-0.12-1.15-0.54-2.14-1.7-2.6c-0.41-0.16-0.87-0.22-1.31-0.27c-0.81-0.08-1.63-0.12-2.44-0.16
		c-0.9-0.05-1.57-0.67-2.16-1.29c-0.57-0.6-1.22-1.09-2.03-1.29c-1.46-0.36-2.98,0.24-4.04,1.24c-0.5,0.46-0.93,1.07-0.99,1.76
		c-0.07,0.74,0.36,1.39,0.51,2.09c0.17,0.8,0.17,1.57-0.38,2.24c-0.35,0.43-0.7,0.87-1.09,1.28c-0.84,0.87-0.94,2.17-0.21,3.13
		c0.64,0.83,1.45,1.35,2.52,1.55c2.01,0.38,4.01,0.86,6.02,1.3c1.69,0.37,2.6,1.49,2.96,3.1c0.19,0.87,0.52,1.65,1,2.39
		c0.63,0.98,1.52,1.37,2.62,1.12c0.87-0.2,1.76-0.36,2.64-0.51c1.53-0.26,2.82,0.22,3.9,1.32c0.23,0.24,0.51,0.44,0.79,0.62
		c1.4,0.92,2.37,0.48,2.62-1.17c0.01-0.08,0.01-0.17,0.02-0.25c0.17-1.14-0.16-2.17-0.64-3.17c-0.45-0.96-0.61-1.97-0.44-3.04
		c0.14-0.86,0.23-1.73,0.27-2.6c0.04-0.9-0.36-1.46-1.2-1.7c-0.86-0.25-1.73-0.48-2.62-0.62c-0.66-0.1-1.35-0.05-2.02-0.07
		c-1.35-0.04-2.16-0.68-2.43-1.97C27.47,61.82,27.44,61.25,27.36,60.7z M39.67,86.89c0.02-0.06,0.04-0.12,0.07-0.19
		c-0.68-0.82-0.91-1.81-1.03-2.81c-0.11-0.94-0.12-1.9-0.14-2.85c-0.01-0.67-0.16-0.89-0.79-1.09c-0.43-0.13-0.75,0.07-1.11,0.24
		c-1.31,0.65-3.01,0.39-3.92-0.9c-0.45-0.64-1.02-1.2-1.59-1.74c-1.14-1.08-2.64-0.87-3.49,0.47c-0.3,0.47-0.68,0.73-1.25,0.67
		c-0.7-0.06-1.4-0.07-2.1-0.15c-0.72-0.09-1.39-0.01-2.04,0.33c-0.75,0.39-1.16,1-1.13,1.82c0.04,0.87,0.56,1.45,1.36,1.77
		c0.39,0.16,0.81,0.24,1.19,0.41c0.66,0.3,0.77,0.62,0.46,1.28c-0.19,0.4-0.48,0.76-0.65,1.18c-0.12,0.29-0.22,0.66-0.15,0.96
		c0.28,1.22,1.36,1.86,2.55,1.86c1.47,0.01,2.92-0.17,4.39,0.04c0.48,0.07,0.79,0.39,0.84,0.92c0.07,0.7,0.13,1.42,0.26,2.12
		c0.1,0.56,0.38,1.02,0.83,1.38c1.03,0.8,2.33,0.37,3.43-0.09c0.82-0.35,1.69-0.59,2.57-0.71c0.89-0.12,1.82-0.02,2.69-0.28
		c0.62-0.19,1.25-1.09,1.23-1.68c-0.02-0.51-0.6-1.16-1.23-1.38c-0.21-0.07-0.43-0.13-0.65-0.19c-1.77-0.47-3.45-1.17-5.09-2
		c-2.16-1.08-4.35-2.1-6.52-3.16c-0.21-0.1-0.44-0.22-0.61-0.39c-0.19-0.19-0.22-0.41-0.31-0.65c0.2-0.03,0.42-0.14,0.59-0.08
		c0.42,0.15,0.82,0.37,1.22,0.56c1.49,0.73,2.97,1.48,4.46,2.19c0.88,0.42,1.78,0.82,2.69,1.19c0.8,0.33,1.62,0.62,2.44,0.91
		C39.3,86.94,39.49,86.89,39.67,86.89z M156.98,61.11c-0.25,2.43-0.49,4.78-0.74,7.12c-0.26,2.39-0.89,4.7-1.58,6.98
		c-0.68,2.24-1.55,4.42-2.36,6.69c0.23,0.01,0.38,0.06,0.5,0.02c1.1-0.34,2.14-0.69,2.86-1.75c0.97-1.44,2.03-2.84,3.18-4.15
		c1.56-1.77,3.19-3.49,4.88-5.13c1.41-1.37,2.91-2.66,4.7-3.54c0.9-0.45,1.09-1.62,1.42-2.48c0.48-1.25,1.02-2.47,1.34-3.77
		C166.36,61.11,161.68,61.11,156.98,61.11z M167.75,69.31c-0.48,0.33-0.81,0.52-1.1,0.76c-3.47,2.98-6.6,6.3-9.26,10.01
		c-2.16,3.01-4.07,6.2-6.08,9.31c-0.04,0.06-0.03,0.15-0.06,0.27c0.94,0.21,1.82,0.16,2.74-0.15c1.75-0.6,3.46-1.32,5.31-1.64
		c1.19-0.21,2.34-0.61,3.51-0.9c0.57-0.14,0.94-0.47,1.15-1.01c0.54-1.39,1.11-2.76,1.62-4.16c1.29-3.57,1.8-7.3,2.17-11.05
		C167.78,70.35,167.75,69.93,167.75,69.31z M39.78,81.82c0.06,0.04,0.12,0.07,0.18,0.11c0.15-0.22,0.28-0.45,0.44-0.66
		c0.19-0.24,0.35-0.54,0.59-0.7c1.7-1.06,3.47-1.42,5.37-0.52c0.23,0.11,0.46,0.25,0.69,0.27c0.23,0.02,0.59-0.04,0.67-0.19
		c0.11-0.19,0.07-0.53-0.01-0.77c-0.1-0.31-0.34-0.58-0.46-0.89c-1.15-3-1.97-6.09-2.64-9.23c-0.55-2.56-0.84-5.16-0.88-7.78
		c-0.01-0.5-0.1-0.99-0.15-1.51c-4.93,0-9.78,0-14.68,0c-0.06,0.83-0.15,1.6,0.2,2.35c0.2,0.42,0.5,0.66,0.98,0.66
		c0.65,0,1.3-0.03,1.94,0.06c1,0.13,2.02,0.24,2.97,0.54c1.33,0.41,2.22,1.34,2.35,2.79c0.06,0.66,0.05,1.35-0.08,2
		c-0.26,1.22-0.26,2.39,0.16,3.56c0.05,0.14,0.15,0.26,0.26,0.45c0.18-0.21,0.31-0.35,0.43-0.5c0.68-0.78,1.46-1.38,2.48-1.66
		c1.87-0.51,3.44,0.26,4.11,2.07c0.3,0.81,0.41,1.59,0.16,2.47c-0.24,0.86-0.65,1.6-1.13,2.33c-0.93,1.4-2.22,2.09-3.88,2.12
		c-0.21,0-0.42,0.03-0.72,0.05c0.23,0.47,0.48,0.84,0.58,1.25C39.81,80.92,39.76,81.38,39.78,81.82z M71.43,11.58
		c-0.04-0.06-0.07-0.13-0.11-0.19c-0.74,0.14-1.48,0.29-2.23,0.41c-3.45,0.55-6.81,1.46-10.17,2.37c-2.92,0.79-5.85,1.6-8.68,2.73
		c-1.77,0.7-3.53,1.45-5.29,2.19c-0.12,0.05-0.23,0.14-0.46,0.29c3.91,1.72,7.73,3.41,11.45,5.05c2.49-2.44,4.79-4.89,7.29-7.1
		C65.74,15.1,68.57,13.31,71.43,11.58z M130.21,12.36c2.6,2.05,5.31,3.92,7.83,6.05c2.57,2.17,4.62,4.81,7.02,7.09
		c1.91-0.59,10.68-4.33,11.19-4.79C147.94,16.73,139.17,14.27,130.21,12.36z M133.04,99.29c0.03,0.06,0.07,0.13,0.1,0.19
		c0.5-0.03,1-0.03,1.5-0.1c2.23-0.31,4.45-0.67,6.68-0.95c0.93-0.12,1.67-0.42,2.08-1.32c0.07-0.15,0.2-0.27,0.32-0.39
		c1.18-1.14,2.09-2.5,3.02-3.83c2.02-2.91,3.99-5.85,5.98-8.78c0.18-0.27,0.31-0.58,0.52-0.99c-0.75,0.06-1.33,0.25-1.88,0.52
		c-2.41,1.16-4.72,2.5-6.93,4c-3.94,2.67-7.34,5.93-10.21,9.72C133.77,97.97,133.43,98.65,133.04,99.29z M161.24,97.06
		c-10.95,1.5-21.91,3-32.87,4.5c-0.02,0-0.03,0.04-0.04,0.07c-0.01,0.02-0.01,0.05-0.03,0.15c0.14,0.08,0.29,0.21,0.46,0.26
		c1.04,0.34,2.09,0.67,3.14,0.98c2.57,0.75,5.21,0.86,7.86,0.94c1.57,0.05,3.16,0.03,4.72-0.16c4.04-0.5,7.97-1.47,11.64-3.29
		c1.63-0.81,3.19-1.78,4.77-2.69C161.12,97.7,161.38,97.54,161.24,97.06z M122.21,98.01c0.24,0.26,0.36,0.42,0.51,0.53
		c0.82,0.59,1.64,1.18,2.48,1.73c0.24,0.16,0.56,0.26,0.85,0.3c1.59,0.23,3.06-0.25,4.52-0.76c0.71-0.25,1.04-0.93,1.38-1.55
		c0.44-0.78,1-1.49,1.48-2.25c1.04-1.66,1.95-3.4,2.8-5.16c0.48-1.01,0.84-2.08,1.21-3.14c0.13-0.38,0.28-0.86-0.14-1.17
		c-0.39-0.28-0.75,0.04-1.08,0.22c-4.49,2.45-8.66,5.33-12.2,9.05C123.38,96.48,122.84,97.24,122.21,98.01z M157.37,96.11
		c0.59,0,1.07,0.05,1.52-0.01c2-0.28,4-0.58,6-0.89c0.3-0.05,0.61-0.15,0.86-0.31c3.06-1.95,6.11-3.9,8.77-6.39
		c0.17-0.16,0.32-0.35,0.54-0.6c-1.09-0.4-2.11-0.52-3.13-0.64c-1.47-0.16-2.91,0.15-4.36,0.32c-3.84,0.45-7.56,1.38-11.2,2.66
		c-0.16,0.06-0.31,0.16-0.58,0.3C158.27,91.86,158.06,93.85,157.37,96.11z M168.05,78.49c0.07,0.06,0.14,0.11,0.21,0.17
		c0.22-0.18,0.45-0.35,0.66-0.54c0.49-0.44,0.94-0.93,1.45-1.36c0.52-0.44,1.11-0.79,1.68-1.15c1.24-0.78,2.49-1.54,3.75-2.28
		c0.43-0.25,0.57-0.52,0.57-1c-0.01-5.23-0.01-10.45-0.01-15.68c0-0.18-0.05-0.35-0.09-0.61c-0.16,0.13-0.27,0.18-0.33,0.26
		c-1.33,1.79-2.48,3.68-3.43,5.69c-0.51,1.09-0.97,2.22-1.39,3.34c-0.91,2.42-1.69,4.88-2.05,7.46c-0.17,1.22-0.4,2.44-0.62,3.65
		C168.32,77.13,168.18,77.81,168.05,78.49z M165.88,85.11c0.06,0.06,0.12,0.13,0.19,0.19c0.5-0.14,1.03-0.23,1.51-0.44
		c2.49-1.09,5-2.16,7.45-3.35c3.45-1.68,6.49-4.02,9.64-6.18c0.37-0.25,0.7-0.57,1.03-0.87c0.13-0.12,0.22-0.28,0.35-0.46
		c-0.17-0.06-0.28-0.1-0.39-0.13c-0.13-0.04-0.27-0.07-0.41-0.1c-2.25-0.4-4.49-0.27-6.67,0.35c-2.06,0.58-4.01,1.46-5.82,2.62
		c-2.55,1.63-4.76,3.58-6.12,6.35C166.32,83.73,166.13,84.44,165.88,85.11z M188.94,58c-0.08-0.04-0.15-0.09-0.23-0.13
		c-0.3,0.18-0.64,0.33-0.89,0.56c-1.65,1.52-3.34,3.01-4.91,4.62c-1.45,1.48-2.81,3.07-4.14,4.66c-1.23,1.47-1.19,1.51-1.19,3.43
		c0,0.58,0.01,1.16,0.02,1.77c0.22-0.01,0.33-0.01,0.44-0.03c1.96-0.44,3.95-0.56,5.95-0.46c0.62,0.03,0.95-0.17,1.24-0.72
		c0.93-1.81,1.58-3.73,2.07-5.68c0.62-2.45,1.11-4.93,1.64-7.39C188.98,58.43,188.94,58.21,188.94,58z M104.51,98.6
		c0.61-0.23,0.71-0.59,0.71-1.1c-0.02-3.8-0.01-7.59-0.01-11.39c0-7.42,0-14.85,0-22.27c0-0.32-0.02-0.65-0.04-0.99
		c-0.27-0.02-0.42-0.03-0.66,0.09C104.51,74.8,104.51,86.66,104.51,98.6z M100.39,104.47c0.09-0.26,0.23-0.52,0.18-0.57
		c-0.37-0.33-0.21-0.74-0.21-1.11c-0.01-12.95-0.01-25.89-0.01-38.84c0-0.36,0-0.72,0-1.06c-0.43-0.12-0.66-0.08-0.67,0.33
		c0,0.17-0.01,0.34-0.01,0.51c0,13,0,26-0.01,39.01C99.67,103.37,99.82,103.9,100.39,104.47z M102.74,62.91
		c-0.39-0.13-0.62-0.12-0.65,0.24c-0.02,0.25-0.01,0.51-0.01,0.76c0,4.25,0,8.49,0,12.74c0,8.01,0,16.03,0,24.04
		c0,0.32,0.02,0.64,0.03,0.96c0.06,0.01,0.12,0.02,0.18,0.04c0.25-0.4,0.49-0.8,0.63-1.02c-0.07-0.58-0.17-0.97-0.17-1.36
		c-0.01-11.78-0.01-23.57-0.01-35.35C102.74,63.59,102.74,63.23,102.74,62.91z M97.94,62.9c-0.42-0.14-0.63-0.07-0.64,0.33
		c0,0.23,0,0.45,0,0.68c0,11.59,0,23.18,0,34.78c0,0.25-0.02,0.51,0.01,0.76c0.04,0.39,0.22,0.71,0.63,0.96
		C97.94,87.86,97.94,75.4,97.94,62.9z M95.56,96.98c0-11.38,0-22.72,0-34.12c-0.22,0-0.4,0-0.68,0c0,0.36,0,0.7,0,1.03
		c0,10.63,0,21.26,0,31.89c0,0.17,0.01,0.34,0,0.51C94.84,96.76,95.11,96.93,95.56,96.98z M106.96,96.96
		c0.74-0.04,0.61-0.52,0.61-0.93c0-10.71,0-21.42,0-32.13c0-0.22,0-0.45-0.01-0.67c-0.01-0.4-0.22-0.47-0.61-0.33
		C106.96,74.23,106.96,85.57,106.96,96.96z M109.31,96.01c0.87-0.01,0.65-1.03,0.65-1.62c0-1.1,0-2.2,0-3.29c0-2.22,0-4.44,0-6.66
		c0-4.39,0-8.78,0-13.18c0-2.48,0-4.95,0-7.43c0-0.2,0-0.39,0-0.59c-0.01-0.47-0.27-0.46-0.64-0.35
		C109.31,73.93,109.31,84.94,109.31,96.01z M113.02,95.56c0.65-0.07,0.65-0.07,0.65-0.68c0-10.35,0-20.71,0-31.06
		c0-0.24,0.07-0.53-0.02-0.77c-0.11-0.28-0.38-0.22-0.63-0.17C113.02,73.8,113.02,84.68,113.02,95.56z M90.16,95.32
		c0.81,0.25,0.61-0.91,0.61-1.37c0-1.07,0-2.15,0-3.22c0-2.15,0-4.3,0-6.45c0-4.34,0-8.69,0-13.03c0-2.48,0-4.95,0-7.43
		c0-0.51,0.08-1.17-0.61-0.91C90.16,73.7,90.16,84.52,90.16,95.32z M87.2,96.35c-0.05-0.51-0.11-0.91-0.11-1.31
		c0-10.38,0-20.76,0-31.14c0-0.33,0-0.66,0-1.03c-0.24-0.01-0.4-0.02-0.66-0.03c0,0.41,0,0.77,0,1.12c0,9.48-0.01,18.96-0.01,28.44
		c0,1.35-0.16,2.72,0.51,4.04C86.99,96.42,87.11,96.38,87.2,96.35z M14.72,72.08c0.05,0.32,0.01,0.84,0.21,1.25
		c0.27,0.56,0.73,1.04,1.1,1.55c0.45-0.11,0.9-0.22,1.35-0.34c0.08-0.02,0.16-0.06,0.24-0.09c1.19-0.52,2.04-1.33,2.42-2.62
		c0.14-0.46,0.06-0.79-0.31-1.02c-0.64-0.39-1.29-0.82-1.99-1.07C16.35,69.26,14.73,70.47,14.72,72.08z M43.99,73.68
		c-0.01,0-0.01,0-0.02,0c0-0.11,0.01-0.23,0-0.34c-0.14-1.72-1.84-2.72-3.35-1.92c-0.68,0.36-1.42,0.86-1.89,1.47
		c-0.48,0.63,0.31,1.32,0.6,1.85c0.43,0.78,1.19,1.11,1.97,1.33c1.34,0.37,2.46-0.42,2.65-1.81C43.98,74.07,43.98,73.87,43.99,73.68
		z M92.92,95.89c0.06-0.04,0.12-0.09,0.18-0.13c0.01-0.19,0.04-0.39,0.04-0.58c0-10.52,0-21.05,0-31.57c0-0.2,0.01-0.4-0.05-0.58
		c-0.03-0.09-0.2-0.16-0.32-0.18c-0.07-0.01-0.2,0.12-0.21,0.2c-0.04,0.25-0.04,0.5-0.04,0.76c0,10.33,0,20.65,0,30.98
		c0,0.22-0.04,0.47,0.03,0.67C92.6,95.62,92.79,95.74,92.92,95.89z M51.78,96.87c-0.19,0.06-0.47,0.1-0.72,0.21
		c-1.31,0.62-1.69,1.82-1.02,3.16c0.65,1.3,0.65,1.3,2.02,0.87c0.08-0.02,0.15-0.07,0.23-0.09c1.24-0.25,1.72-1.25,2.16-2.26
		c0.07-0.17-0.03-0.51-0.17-0.67C53.64,97.37,52.82,96.98,51.78,96.87z M109.18,61.08c-0.04-0.07-0.08-0.13-0.12-0.2
		c-0.25-0.01-0.5-0.04-0.75-0.04c-5.51,0-11.03,0-16.54,0c-0.11,0-0.23-0.01-0.34,0c-0.21,0.02-0.49-0.05-0.52,0.28
		c-0.02,0.34,0.26,0.3,0.48,0.31c0.14,0.01,0.28,0,0.42,0c5.46,0,10.92,0,16.37,0c0.22,0,0.46,0.03,0.67-0.03
		C108.99,61.37,109.07,61.19,109.18,61.08z M64.24,106.32c0.6,0.01,1.2-0.35,1.76-0.79c0.12-0.09,0.19-0.28,0.22-0.43
		c0.22-1.2-1.01-2.76-2.24-2.8c-0.17-0.01-0.39,0.09-0.52,0.21c-0.68,0.59-1,1.36-0.93,2.24C62.58,105.58,63.38,106.33,64.24,106.32
		z M39.02,96.52c0.28-0.04,0.66-0.04,0.99-0.17c0.22-0.09,0.5-0.34,0.53-0.56c0.16-1.15-0.25-2.14-1.04-2.97
		c-0.26-0.27-0.58-0.37-0.89-0.09c-0.5,0.44-1.07,0.84-1.43,1.38c-0.63,0.94-0.02,2.16,1.1,2.36C38.49,96.5,38.71,96.5,39.02,96.52z
		 M103.88,53.02c0-0.3-0.02-0.47,0-0.64c0.11-0.86-0.25-1.46-0.98-1.87c-0.73-0.41-1.45-0.85-2.2-1.24
		c-0.44-0.23-0.94-0.23-1.38,0.01c-0.83,0.46-1.65,0.95-2.46,1.44c-0.5,0.3-0.71,0.76-0.69,1.35c0.02,0.53-0.04,1.07,0.02,1.6
		c0.04,0.37,0.15,0.77,0.33,1.09c0.41,0.7,0.91,1.32,1.55,1.86c0.54,0.45,0.99,0.86,1.73,0.47c0.11-0.06,0.32-0.08,0.4-0.01
		c0.51,0.4,0.96,0.13,1.39-0.1c0.25-0.14,0.44-0.39,0.65-0.6C103.21,55.41,104.14,54.42,103.88,53.02z M38.15,74.1
		c-0.55,0.64-0.5,1.31-0.47,1.97c0.04,0.89,0.54,1.48,1.28,1.93c0.8,0.49,1.51,0.48,2.22-0.16c0.31-0.28,0.69-0.48,1.02-0.73
		c0.1-0.07,0.15-0.2,0.22-0.3c-0.08-0.08-0.12-0.14-0.16-0.14c-0.14-0.03-0.28-0.04-0.41-0.05c-1.32-0.04-2.34-0.59-3.03-1.74
		C38.65,74.61,38.39,74.39,38.15,74.1z M129.13,83.39c0.17-1.42,0.11-8.29-0.07-8.9c-0.13-0.01-0.27-0.04-0.41-0.03
		c-0.13,0-0.26,0.03-0.42,0.06c0,2.98,0,5.91,0,8.88C128.55,83.39,128.82,83.39,129.13,83.39z M20.55,72.23
		c-0.44,0.79-0.74,1.62-1.53,2.04c-0.73,0.39-1.5,0.72-2.26,1.08c1.13,1.33,2.61,1.46,3.78,0.39
		C21.48,74.88,21.63,73.17,20.55,72.23z M74.37,83.45c0.37-0.03,0.63-0.06,0.88-0.08c0-3.01,0-5.92,0-8.91
		c-0.32,0.01-0.59,0.03-0.88,0.04C74.37,77.49,74.37,80.41,74.37,83.45z M78.63,83.39c0.17-1.28,0.12-8.3-0.06-8.89
		c-0.24,0-0.48,0-0.78,0c0,2.98,0,5.92,0,8.89C78.1,83.39,78.34,83.39,78.63,83.39z M122.23,83.39c0.18-1.67,0.12-8.69-0.11-8.93
		c-0.2,0.01-0.44,0.03-0.71,0.04c0,2.99,0,5.92,0,8.89C121.71,83.39,121.95,83.39,122.23,83.39z M105.02,46.98
		c-0.36-0.09-0.58-0.07-0.6,0.3c-0.01,0.14-0.01,0.28-0.01,0.42c0,3.71,0,7.42,0,11.12c0,0.14-0.01,0.28,0.01,0.42
		c0.06,0.35,0.27,0.37,0.59,0.22C105.02,55.33,105.02,51.19,105.02,46.98z M108.8,47.05c0,0.23,0,0.51,0,0.78
		c0,3.62-0.01,7.24,0.01,10.86c0,0.29-0.21,0.82,0.27,0.83c0.56,0.01,0.32-0.56,0.32-0.87c0.02-3.62,0.01-7.24,0.01-10.86
		c0-0.2,0.01-0.4-0.02-0.59C109.33,46.89,109.13,46.88,108.8,47.05z M107.2,59.46c0.02-0.2,0.05-0.42,0.05-0.64
		c0-3.71,0-7.42,0-11.14c0-0.17,0.01-0.34-0.02-0.5c-0.06-0.32-0.28-0.29-0.55-0.17c-0.16,1.95-0.06,3.91-0.05,5.86
		c0,1.97,0,3.94,0,5.92c0,0.17-0.01,0.34,0.03,0.5C106.72,59.6,106.92,59.6,107.2,59.46z M95.57,59.71c0-4.41,0-8.57,0-12.73
		c-0.29-0.09-0.51-0.1-0.56,0.22c-0.03,0.19-0.02,0.39-0.02,0.59c0,3.62,0,7.24,0,10.86c0,0.22-0.03,0.46,0.05,0.67
		C95.08,59.44,95.29,59.51,95.57,59.71z M125.64,83.39c0.18-1.75,0.11-8.68-0.1-8.91c-0.17,0-0.36-0.01-0.55,0
		c-0.05,0-0.09,0.06-0.16,0.11c0,2.91,0,5.84,0,8.8C125.12,83.39,125.36,83.39,125.64,83.39z M70.99,74.48
		c-0.17,0.94-0.15,8.25,0.03,8.92c0.12,0.01,0.26,0.04,0.4,0.03c0.13-0.01,0.26-0.05,0.37-0.08c0.2-1.59,0.12-8.65-0.11-8.87
		C71.48,74.48,71.26,74.48,70.99,74.48z M179.21,85.14c0-0.81-0.67-1.5-1.48-1.52c-0.83-0.03-1.56,0.69-1.56,1.53
		c0,0.85,0.71,1.53,1.57,1.51C178.57,86.63,179.21,85.97,179.21,85.14z M179.68,80.89c-0.81-0.01-1.5,0.65-1.53,1.47
		c-0.04,0.86,0.63,1.57,1.49,1.58c0.81,0.01,1.51-0.65,1.55-1.45C181.23,81.67,180.5,80.9,179.68,80.89z M122.27,95.36
		c0.01-0.81-0.67-1.5-1.5-1.52c-0.86-0.02-1.52,0.6-1.55,1.44c-0.03,0.82,0.65,1.56,1.47,1.58
		C121.51,96.87,122.25,96.18,122.27,95.36z M180.49,63.54c0.01-0.8-0.67-1.53-1.48-1.56c-0.83-0.03-1.54,0.7-1.55,1.51
		c-0.01,0.83,0.67,1.54,1.5,1.54C179.79,65.04,180.47,64.37,180.49,63.54z M175.95,84.86c-0.01-0.82-0.7-1.48-1.53-1.48
		c-0.89,0-1.55,0.68-1.51,1.56c0.03,0.83,0.72,1.48,1.55,1.46C175.27,86.37,175.97,85.66,175.95,84.86z M152.73,92.52
		c0.04-0.86-0.56-1.53-1.4-1.58c-0.88-0.05-1.6,0.6-1.62,1.46c-0.02,0.82,0.63,1.51,1.46,1.54
		C152.02,93.98,152.7,93.36,152.73,92.52z M150.2,95.27c0.02-0.85-0.6-1.54-1.41-1.56c-0.8-0.03-1.49,0.64-1.51,1.48
		c-0.03,0.83,0.62,1.54,1.43,1.56C149.52,96.77,150.18,96.12,150.2,95.27z M51.45,101.87c1.19,1.24,2.45,1.39,3.34,0.52
		c0.89-0.88,0.9-2.36-0.03-3.24C54.34,100.85,53.02,101.46,51.45,101.87z M93.42,46.82c-0.29,0.15-0.48,0.19-0.53,0.29
		c-0.07,0.14-0.05,0.33-0.05,0.5c0,3.74,0,7.48,0,11.22c0,0.17,0,0.34,0.04,0.5c0.02,0.08,0.15,0.21,0.21,0.2
		c0.34-0.07,0.34-0.41,0.34-0.69c-0.01-0.48,0-0.96,0-1.45c0-1.05,0-2.1,0-3.15c0-2.13,0-4.25,0-6.38
		C93.42,47.58,93.42,47.31,93.42,46.82z M90.82,46.84c-0.23,0.92-0.2,12.1,0.02,12.76c0.13-0.1,0.31-0.16,0.35-0.27
		c0.06-0.18,0.04-0.39,0.04-0.58c0-3.66,0-7.31,0-10.97c0-0.2,0.03-0.41-0.03-0.58C91.16,47.07,90.98,46.98,90.82,46.84z
		 M117.42,94.15c0.76-0.1,1.06-0.33,0.87-0.6c-0.29-0.4-0.18-0.81-0.18-1.21c-0.02-1.96-0.01-3.92-0.01-5.88c0-0.3,0-0.6,0-0.9
		c-0.4-0.12-0.64-0.11-0.67,0.3c-0.01,0.17-0.01,0.34-0.01,0.5c0,2.33,0,4.65,0,6.98C117.42,93.58,117.42,93.83,117.42,94.15z
		 M66.61,104.73c0.72-0.26,1.12-0.98,1.11-1.79c-0.01-0.8-0.55-1.47-1.37-1.72c-0.64-0.2-1.43,0.1-1.93,0.77
		C65.56,102.54,66.66,103.14,66.61,104.73z M181.09,60.33c0-0.77-0.62-1.4-1.37-1.4c-0.74,0.01-1.38,0.67-1.36,1.42
		c0.01,0.74,0.6,1.32,1.34,1.33C180.47,61.7,181.08,61.11,181.09,60.33z M76.09,93.57c0,0.02,0,0.05,0.01,0.07
		c0.45,0,0.9-0.01,1.35,0c0.88,0.02,0.98-0.07,0.98-0.93c0.01-2.19,0-4.38,0-6.58c0-0.22-0.05-0.43-0.07-0.62
		c-0.71-0.18-0.62,0.46-0.62,0.97c0,2.05,0,4.1,0,6.16c0,0.3-0.03,0.6-0.04,0.93C77.1,93.57,76.59,93.57,76.09,93.57z M39.89,92.36
		c0.09,0.16,0.13,0.28,0.2,0.34c0.75,0.63,0.86,1.47,0.8,2.37c-0.01,0.17-0.04,0.34-0.03,0.5c0.04,0.4,0.36,0.55,0.63,0.25
		c0.37-0.41,0.77-0.86,0.94-1.36c0.41-1.2-0.39-2.2-1.66-2.2C40.51,92.27,40.23,92.32,39.89,92.36z M82.57,93.84
		c0-2.83,0-5.56,0-8.28c-0.54-0.21-0.63,0.07-0.63,0.47c0,2.3,0.01,4.6-0.01,6.91C81.94,93.37,82.19,93.56,82.57,93.84z
		 M122.25,93.48c0-2.68,0-5.31,0-7.93c-0.45-0.18-0.64-0.04-0.64,0.38c0,2.34,0,4.67,0,7.01C121.6,93.34,121.79,93.5,122.25,93.48z
		 M97.34,40.47c0.52,0.2,0.58-0.09,0.58-0.44c0-0.87,0-1.74,0-2.61c0-1.34,0.01-2.69-0.02-4.03c0-0.23-0.3-0.56-0.52-0.35
		c-0.17,0.16-0.08,0.53-0.08,0.74c0,1.99,0,3.98,0,5.97C97.31,39.99,97.33,40.24,97.34,40.47z M74.97,93.3c0.09,0,0.19,0,0.28,0
		c0.02-0.23,0.06-0.47,0.06-0.7c0-2.1,0-4.21,0-6.31c0-0.17,0.01-0.34-0.02-0.5c-0.06-0.36-0.28-0.35-0.58-0.23
		c-0.02,0.1-0.06,0.21-0.06,0.32c-0.01,1.68-0.01,3.37,0,5.05c0,0.14-0.01,0.34,0.06,0.4c0.36,0.28,0.23,0.66,0.25,1.01
		C74.98,92.65,74.97,92.98,74.97,93.3z M102.22,40.63c0.22-0.13,0.41-0.18,0.48-0.3c0.07-0.13,0.04-0.33,0.04-0.5
		c0-2.05,0.01-4.1-0.01-6.16c0-0.26,0.17-0.73-0.33-0.69c-0.4,0.03-0.24,0.44-0.24,0.69c-0.01,2.08-0.01,4.16,0,6.24
		C102.15,40.11,102.19,40.3,102.22,40.63z M125.57,91.59c-0.07-0.43-0.17-0.77-0.18-1.11c-0.02-1.43,0-2.86-0.02-4.28
		c0-0.26,0.16-0.72-0.34-0.69c-0.41,0.02-0.27,0.43-0.27,0.68c-0.01,1.85-0.01,3.69,0,5.54c0,0.17,0.06,0.34,0.11,0.63
		C125.2,92.01,125.42,91.76,125.57,91.59z M128.05,89.78c0.67-0.27,1.32-0.78,0.89-1.53c-0.43-0.76-0.24-1.84-0.24-2.69
		c-0.57-0.19-0.66,0.06-0.66,0.43c0,0.93,0,1.85,0,2.78C128.05,89.1,128.05,89.42,128.05,89.78z M71.93,85.54
		c-0.3-0.1-0.54-0.1-0.56,0.21c-0.03,0.64-0.15,1.34,0.06,1.91c0.18,0.5,0.21,0.96,0.22,1.45c0.02,0.53,0,1.06,0.02,1.59
		c0,0.12,0.11,0.24,0.26,0.53C71.93,89.19,71.93,87.36,71.93,85.54z M108,43.6c0,0.59,0,1.08,0,1.61c0.68,0,1.3,0,1.93,0
		c0-0.57,0-1.07,0-1.61C109.27,43.6,108.67,43.6,108,43.6z M90.08,43.6c0,0.59,0,1.08,0,1.61c0.68,0,1.3,0,1.94,0
		c0-0.57,0-1.07,0-1.61C91.35,43.6,90.75,43.6,90.08,43.6z M103.57,43.6c0,0.59,0,1.1,0,1.64c0.7,0,1.33,0.13,1.93-0.08
		c0-0.54,0-1.02,0-1.55C104.83,43.6,104.23,43.6,103.57,43.6z M101.01,45.22c0-0.59,0-1.08,0-1.61c-0.69,0-1.31,0-1.96,0
		c0,0.57,0,1.08,0,1.61C99.73,45.22,100.34,45.22,101.01,45.22z M94.6,43.61c0,0.56,0,1.08,0,1.61c0.67,0,1.28,0,1.92,0
		c0-0.56,0-1.07,0-1.61C95.85,43.61,95.24,43.61,94.6,43.61z M99.04,36.31c0.69,0,1.3,0,1.95,0c0-0.65,0-1.24,0-1.87
		c-0.69-0.04-1.32-0.14-1.95,0.07C99.04,35.11,99.04,35.66,99.04,36.31z"/>
	<path class="st0" d="M126.33,105.35c-0.38,0.37-0.77,0.37-1.15,0.35c-2.17-0.12-4.28-0.49-6.34-1.25
		c-2.73-1.02-5.41-2.22-8.32-2.68c-0.66-0.1-1.34-0.08-2.01-0.12c-0.29-0.02-0.58-0.05-0.88-0.08c0.09-0.48,0.39-0.49,0.66-0.54
		c1.63-0.32,3.21-0.31,4.8,0.32c1.98,0.79,4.02,1.44,6.03,2.18c1.83,0.68,3.78,0.88,5.66,1.34
		C125.29,105,125.81,105.08,126.33,105.35z"/>
	<path class="st0" d="M74,103.65c-0.05-0.61,0.38-0.76,0.73-0.88c1.04-0.34,2.08-0.69,3.15-0.91c2.87-0.61,5.76-0.39,8.63,0.05
		c1.67,0.25,3.33,0.51,4.99,0.79c0.63,0.11,1.25,0.29,1.89,0.73c-0.59,0.22-1.09,0.27-1.61,0.18c-1.44-0.24-2.87-0.51-4.31-0.74
		c-2.45-0.39-4.91-0.5-7.38-0.3c-1.94,0.16-3.84,0.48-5.69,1.08C74.29,103.67,74.17,103.65,74,103.65z"/>
	<path class="st0" d="M47.95,86.24c0.43-0.39,0.68-0.16,0.93,0.01c3.67,2.39,7.38,4.73,11.32,6.68c2.32,1.15,4.72,2.1,7.13,3.04
		c0.26,0.1,0.48,0.31,0.7,0.45c-0.2,0.43-0.48,0.33-0.71,0.29c-2.81-0.39-5.43-1.39-7.97-2.62c-3.02-1.47-5.88-3.19-8.54-5.24
		c-0.8-0.62-1.66-1.16-2.32-1.95C48.32,86.69,48.15,86.48,47.95,86.24z"/>
	<path class="st0" d="M30.83,71.18c-0.84-0.13-1.49-0.36-2.06-0.77c-0.42-0.3-0.81-0.63-1.2-0.98c-0.35-0.31-0.66-0.67-1.05-0.94
		c-2.38-1.59-4.13-3.81-5.93-5.96c-0.8-0.96-1.32-2.14-1.95-3.24c-0.1-0.18-0.09-0.42-0.15-0.75c0.27,0.07,0.47,0.07,0.59,0.17
		c0.24,0.19,0.48,0.41,0.64,0.66c0.91,1.46,2.01,2.77,3.18,4.03c0.75,0.8,1.43,1.67,2.21,2.44c1.18,1.16,2.41,2.27,3.64,3.39
		c0.56,0.51,1.16,0.98,1.73,1.47C30.59,70.79,30.66,70.94,30.83,71.18z"/>
	<path class="st0" d="M100.81,56.92c-0.54-0.49-1.06-0.47-1.55-0.02c-1.21-0.63-2.06-1.6-2.61-2.76c-0.24-0.51-0.12-1.2-0.17-1.81
		c-0.05-0.68,0.33-1.09,0.87-1.41c0.69-0.42,1.36-0.91,2.09-1.25c1.02-0.47,2.23,0.59,3.02,1.12c0.42,0.28,0.82,0.49,0.99,0.98
		c0.15,0.43,0.2,0.96,0.17,1.41c-0.05,0.85-0.54,1.7-1.08,2.34C102.07,56.1,101.42,56.5,100.81,56.92z"/>
	<path class="st0" d="M109.59,44.94c-0.45,0-0.85,0-1.27,0c0-0.36,0-0.66,0-1.02c0.43,0,0.83,0,1.27,0
		C109.59,44.27,109.59,44.58,109.59,44.94z"/>
	<path class="st0" d="M91.69,44.94c-0.41,0-0.81,0-1.25,0c0-0.35,0-0.64,0-1.01c0.4,0,0.8,0,1.25,0
		C91.69,44.25,91.69,44.57,91.69,44.94z"/>
	<path class="st0" d="M105.11,44.96c-0.44,0-0.8,0-1.22,0c0-0.36,0-0.67,0-1.04c0.39,0,0.78,0,1.22,0
		C105.11,44.24,105.11,44.56,105.11,44.96z"/>
	<path class="st0" d="M100.66,43.84c0,0.38,0,0.7,0,1.07c-0.45,0-0.84,0-1.29,0c0-0.38,0-0.7,0-1.07
		C99.82,43.84,100.22,43.84,100.66,43.84z"/>
	<path class="st0" d="M96.18,44.94c-0.39,0-0.77,0-1.21,0c0-0.33,0-0.65,0-1.02c0.39,0,0.77,0,1.21,0
		C96.18,44.24,96.18,44.56,96.18,44.94z"/>
	<path class="st0" d="M100.76,34.7c0,0.46,0,0.82,0,1.23c-0.48,0-0.91,0-1.42,0c0-0.39,0-0.79,0-1.23
		C99.82,34.7,100.25,34.7,100.76,34.7z"/>
</g>
</svg>
