<?xml version="1.0" encoding="utf-8"?>
<!-- Generator: Adobe Illustrator 19.0.0, SVG Export Plug-In . SVG Version: 6.00 Build 0)  -->
<svg version="1.1" xmlns="http://www.w3.org/2000/svg" xmlns:xlink="http://www.w3.org/1999/xlink" x="0px" y="0px"
	 viewBox="0 0 350 70" style="enable-background:new 0 0 350 70;" xml:space="preserve">
<style type="text/css">
	.st0{fill:#3399FF;}
	.st1{fill:#FFFFFF;}
	.st2{fill:#1D1D1B;}
</style>
<g id="bg">
	<path id="veco" class="st0" d="M0,0v70h350V0H0z"/>
</g>
<g id="eye_x5F_ball">
	<g id="sclera">
		<path id="XMLID_34_" class="st1" d="M145,60c-27.6,0-50-25-50-25s22.4-25,50-25c27.6,0,50,25,50,25S172.6,60,145,60z"/>
	</g>
	<circle id="iris" class="st0" cx="145" cy="35" r="25"/>
	<circle id="pupil_1_" class="st2" cx="145" cy="35" r="12.5"/>
	<circle id="hotspot" class="st1" cx="145" cy="35" r="5"/>
</g>
<g id="txt">
	<path id="eye_x5F_motion" class="st1" d="M82.6,22.9c0-2.4-1.3-5-6.1-5c-8.7,0-13.2,10.9-13.2,17.7c0,0.8,0.1,1.6,0.2,2.3
		c-1.8,1.3-4,2.7-6.5,3.8c0.3-0.5,0.3-1.3,0.5-2.1L62,18.7c-0.5-0.5-1.3-0.8-2.4-0.8c-1.9,0-4,1.1-4.5,3.4L51.6,37
		c-1.1,1.1-2.4,1.9-4,1.9c-1.9,0-2.1-1.3-1.9-2.9L49,20.8c0.3-2.1-0.8-2.9-2.6-2.9c-2.1,0-4,1.3-5.8,2.6c-1.1,0.8-0.8,2.4,0,2.9
		c0.5-0.3,0.8-0.5,1.1-0.5c0.5,0,0.8,0.5,0.5,1.3l-2.6,10.9c0,0.1-0.1,0.3-0.1,0.4c-2.3,2.7-7,5.1-10.5,5.1c-2.4,0-4.2-1.1-4.8-4
		c10.1-5.8,12.4-9.3,12.4-13.5c0-2.4-1.3-5-6.1-5c-8.7,0-13.2,10.9-13.2,17.7c0,6.6,4,9.5,9,9.5c4.2,0,9.1-2.2,12.7-6
		c0,3.2,1.3,5.7,5,5.7c2.6,0,5-1.6,7.1-4.2c-0.3,1.3-0.8,2.6-1.1,4c-8.7,4-15.9,7.1-15.9,13.8c0,4.2,3.4,6.4,6.4,6.4
		c9.3,0,13.2-10.3,15.6-20.1c3.3-1.7,6.5-3.8,7.8-4.7c1.2,3.5,4,5,7.5,5c4.8,0,9.5-3.2,9.5-6.1c0-0.8-0.5-1.3-1.6-1.3
		c-0.8,1.9-2.4,2.9-4.8,2.9c-2.1,0-4-1.3-4.5-4C80.2,30.9,82.6,27.4,82.6,22.9z M30.7,21.9c1.1,0,1.6,0.8,1.6,2.1
		c0,3.4-3.4,7.1-8.5,10.3C24.1,30.6,25.7,21.9,30.7,21.9z M40.5,60c-0.5,0-2.1-0.5-2.1-2.4c0-4,4.2-6.4,10.6-9.5
		C46.3,56.6,44.2,60.3,40.5,60z M69.9,34.3c0-3.7,1.9-12.4,6.9-12.4c1.1,0,1.6,0.8,1.6,2.1C78.4,27.4,74.9,31.1,69.9,34.3z
		 M283.3,11.3c0-2.1,1.9-3.7,4-3.7c2.1,0,3.7,1.6,3.4,3.7c-0.3,2.1-2.1,3.7-4.2,3.7S282.8,13.4,283.3,11.3z M253.6,17.6
		c-7.9,0-13.5,10.1-13.5,18c0,0.6,0,1.2,0.1,1.7c-1.3,1.3-3.6,2.5-5.4,2.5c-1.1,0-1.6-0.5-1.3-2.1l2.6-12.2c1.3-6.1-2.1-7.7-4.5-7.7
		c-3.2,0-5.8,2.1-7.9,5.3c0-3.7-2.4-5.3-4.5-5.3c-2.9,0-5.6,2.1-7.7,5.3l0.3-2.6c0.3-2.1-0.8-2.9-2.6-2.9c-2.1,0-4,1.3-5.8,2.6
		c-1.1,0.8-0.8,2.4,0,2.9c0.5-0.3,0.8-0.5,1.1-0.5c0.5,0,0.8,0.5,0.5,1.3l-4.2,20.1c0.5,0.5,1.3,0.8,2.4,0.8c1.9,0,4-1.1,4.5-3.4
		l3.2-15.1c1.3-1.6,2.9-2.6,4.8-2.6c1.9,0,1.6,1.6,1.3,3.2l-3.7,17.2c0.5,0.5,1.3,0.8,2.4,0.8c1.9,0,4-1.1,4.5-3.4l3.2-15.4
		c1.3-1.3,2.6-2.4,4.5-2.4c1.9,0,1.9,1.6,1.3,3.2l-2.1,10.6c-1.1,6.1,1.6,7.4,4.2,7.4c3.4,0,7.1-2.4,9.5-5.3c0,0,0-0.1,0.1-0.1
		c1,3.1,3.3,5.4,7.1,5.4c8.2,0,13.8-9.8,13.8-17.7C261.6,22.1,259.2,17.9,253.6,17.6z M250.2,40.4c-1.9,0-3.4-1.9-3.4-6.4
		c0-5,2.9-12.2,7.7-12.2c2.4,0,3.2,2.1,3.2,5C257.6,32.2,254.4,40.4,250.2,40.4z M342.1,38.8c0,3.7-4.2,6.1-7.1,6.1
		c-2.6,0-6.4-1.3-5-7.4l2.1-10.6c0.5-2.1-0.3-3.2-1.3-3.2c-1.3,0-3.4,1.3-4.8,2.6l-3.2,15.1c-0.5,2.4-2.6,3.4-4.5,3.4
		c-1.1,0-1.9-0.3-2.4-0.8l4.2-20.1c0.3-0.8,0-1.3-0.5-1.3c-0.2,0-0.4,0.1-0.6,0.3c-0.1,0.2-0.3,0.4-0.5,0.5c-1.3,1.1-3.4,3.7-5.6,5
		c0,0.3,0,0.5,0,0.5c0,7.9-7.4,15.9-13.8,15.9c-3.7,0-6-2.2-7-5.2c-2.4,2.8-6,5.2-9.4,5.2c-2.6,0-5.6-1.6-4.8-6.4l3.4-16.1
		c0.3-0.8-0.3-1.3-1.1-1.3l-6.9,0.3l-3.2,14.8c-0.5,2.6,0,4,1.1,4s2.1-0.5,2.9-2.6c1.1,0,1.6,0.5,1.6,1.3c0,3.7-4.2,6.1-7.1,6.1
		c-2.6,0-6.4-1.6-5-7.7l3.4-15.9h-2.6c-0.3-1.6,0.5-3.2,2.1-3.2h1.1l1.1-4.2c0.5-2.4,2.6-3.4,4.5-3.4c1.1,0,1.9,0.3,2.4,0.8
		l-1.6,6.9h11.4c1.9,0,2.9,0.8,2.6,2.9l-3.2,14.8c-0.5,2.9,0.3,4,1.6,4c1.7,0,3.8-1.1,5.2-2.3c-0.1-0.6-0.1-1.3-0.1-1.9
		c0-7.9,5.6-18,13.5-18c2.6,0,4.8,0.8,6.4,3.2c0,1.3-1.1,1.9-1.9,1.6c-1.1-0.3-2.1-0.5-3.4-0.5c-4.8,0-7.9,7.1-7.9,12.2
		c0,4.5,1.6,6.4,3.4,6.4c2.6,0,6.1-4,6.1-8.7c0-0.8,0-1.3-0.3-2.1c-1.1,0-1.9-0.3-2.4-0.5c-1.1-2.9,0-5.6,3.2-5.6
		c1.9,0,3.4,0.8,4.2,2.4c1.9-1.2,3.5-3.1,5.5-4.7c0.1-0.3,0.3-0.7,0.6-0.9c1.9-1.3,3.7-2.6,5.8-2.6c1.9,0,2.9,0.8,2.6,2.9l-0.5,2.4
		c2.1-3.2,5.6-5.3,8.7-5.3c2.9,0,4.8,2.1,3.7,7.7l-2.4,10.9c-0.5,2.6,0,4,1.1,4s2.1-0.5,2.9-2.6C341.5,37.5,342.1,38,342.1,38.8z"/>
</g>
</svg>
