<?xml version="1.0" encoding="utf-8"?>
<!-- Generator: Adobe Illustrator 19.0.0, SVG Export Plug-In . SVG Version: 6.00 Build 0)  -->
<svg version="1.1" id="Layer_1" xmlns="http://www.w3.org/2000/svg" xmlns:xlink="http://www.w3.org/1999/xlink" x="0px" y="0px"
	 viewBox="-159 31 350 70" style="enable-background:new -159 31 350 70;" xml:space="preserve">
<style type="text/css">
	.st0{fill:#3399FF;}
	.st1{fill:#FFFFFF;}
</style>
<path id="veco" class="st0" d="M-159,31v70h350V31H-159z M-16.56429,85.96853c-25.94553,0-46.86082-23.29803-46.86082-23.29803
	s20.91529-23.29803,46.86082-23.29803S30.29652,62.6705,30.29652,62.6705S9.38124,85.96853-16.56429,85.96853z"/>
<path id="eye_x5F_motion" class="st1" d="M-76.39785,53.93372c0-2.38275-1.32379-5.03021-6.08929-5.03021
	c-8.73676,0-13.23749,10.85474-13.23749,17.73822c0,0.83398,0.05273,1.60303,0.15002,2.31543
	c-1.76526,1.34058-4.0368,2.6524-6.50403,3.77386c0.26477-0.52954,0.26477-1.32373,0.52948-2.11798l4.50079-20.91528
	c-0.52954-0.52954-1.32379-0.79425-2.38281-0.79425c-1.85321,0-3.97125,1.05896-4.50073,3.44171l-3.44177,15.6203
	c-1.05896,1.05902-2.38275,1.85327-3.97125,1.85327c-1.85321,0-2.11798-1.32379-1.85321-2.91229l3.177-15.09076
	c0.26471-2.11798-0.79425-2.91223-2.64752-2.91223c-2.11798,0-3.97125,1.32373-5.82452,2.64746
	c-1.05902,0.79425-0.79425,2.38275,0,2.91229c0.52948-0.26477,0.79425-0.52954,1.05902-0.52954
	c0.52948,0,0.79425,0.52954,0.52948,1.32379l-2.64746,10.85474c-0.03101,0.14728-0.0567,0.29407-0.08533,0.44122
	c-2.28107,2.73279-6.98669,5.11853-10.50471,5.11853c-2.38275,0-4.23602-1.05896-4.7655-3.97125
	c10.06049-5.82452,12.44324-9.26624,12.44324-13.50226c0-2.38275-1.32373-5.03027-6.08924-5.03027
	c-8.73676,0-13.23755,10.8548-13.23755,17.73828c0,6.61877,3.97125,9.53101,9.00153,9.53101
	c4.177,0,9.07984-2.19604,12.74659-5.97089c0.03986,3.22083,1.27209,5.70612,4.9917,5.70612
	c2.64752,0,5.03027-1.5885,7.14825-4.23596c-0.26477,1.32373-0.79425,2.64746-1.05902,3.97125
	c-8.73676,3.97125-15.88501,7.14825-15.88501,13.76697c0,4.23602,3.44177,6.35406,6.354,6.35406
	c9.2663,0,13.23755-10.32526,15.6203-20.12103c3.34259-1.67133,6.45239-3.76196,7.81091-4.74115
	c1.21716,3.54846,4.01581,5.00592,7.54462,5.00592c4.7655,0,9.53101-3.177,9.53101-6.08929
	c0-0.79425-0.52954-1.32373-1.5885-1.32373c-0.79425,1.85327-2.38275,2.91223-4.7655,2.91223
	c-2.11804,0-3.97125-1.32373-4.50079-3.97125C-78.7806,61.87622-76.39785,58.43451-76.39785,53.93372z M-128.28897,52.87476
	c1.05903,0,1.58851,0.79425,1.58851,2.11798c0,3.44177-3.44172,7.14825-8.47199,10.32526
	C-134.90768,61.61151-133.31918,52.87476-128.28897,52.87476z M-118.49319,90.99878c-0.52948,0-2.11798-0.52948-2.11798-2.38275
	c0-3.97125,4.23596-6.354,10.59003-9.53101C-112.66866,87.55701-114.78664,91.26355-118.49319,90.99878z M-89.10586,65.31799
	c0-3.70648,1.85321-12.44324,6.88348-12.44324c1.05902,0,1.5885,0.79425,1.5885,2.11798
	C-80.63387,58.43451-84.07565,62.14099-89.10586,65.31799z M124.28294,42.28473c0-2.11804,1.85321-3.70654,3.97124-3.70654
	c2.11798,0,3.70648,1.5885,3.44171,3.70654c-0.26471,2.11798-2.11798,3.70648-4.23595,3.70648
	C125.34196,45.99121,123.7534,44.40271,124.28294,42.28473z M94.6309,48.63873c-7.9425,0-13.50226,10.06049-13.50226,18.00299
	c0,0.58331,0.0368,1.16229,0.10919,1.72992c-1.34753,1.27484-3.61737,2.5061-5.40424,2.5061
	c-1.05902,0-1.5885-0.52948-1.32379-2.11798l2.64752-12.17853c1.32373-6.08929-2.11798-7.67773-4.50073-7.67773
	c-3.177,0-5.82452,2.11798-7.9425,5.29498c0-3.70654-2.38275-5.29498-4.50073-5.29498c-2.91229,0-5.55975,2.11798-7.6778,5.29498
	l0.26477-2.64752c0.26477-2.11798-0.79425-2.91223-2.64746-2.91223c-2.11804,0-3.97125,1.32373-5.82452,2.64752
	c-1.05902,0.79425-0.79425,2.38275,0,2.91223c0.52948-0.26477,0.79425-0.52948,1.05902-0.52948
	c0.52948,0,0.79425,0.52948,0.52948,1.32373l-4.23602,20.12103c0.52954,0.52948,1.32379,0.79425,2.38275,0.79425
	c1.85327,0,3.97125-1.05902,4.50079-3.44177l3.177-15.09076c1.32373-1.5885,2.91223-2.64752,4.7655-2.64752
	c1.85321,0,1.5885,1.5885,1.32373,3.177l-3.70648,17.2088c0.52948,0.52948,1.32373,0.79425,2.38275,0.79425
	c1.85321,0,3.97125-1.05902,4.50073-3.44177l3.177-15.35553c1.32373-1.32373,2.64752-2.38275,4.50073-2.38275
	c1.85327,0,1.85327,1.5885,1.32379,3.177L67.89109,68.495c-1.05902,6.08929,1.5885,7.41302,4.23602,7.41302
	c3.44171,0,7.14825-2.38275,9.53101-5.29498c0.02222-0.02222,0.04321-0.05487,0.06525-0.08051
	c0.9989,3.06183,3.2901,5.37549,7.08301,5.37549c8.20728,0,13.76703-9.79578,13.76703-17.73828
	C102.5734,53.13947,100.19065,48.9035,94.6309,48.63873z M91.18913,71.40729c-1.85327,0-3.44177-1.85327-3.44177-6.354
	c0-5.03027,2.91229-12.17853,7.6778-12.17853c2.38275,0,3.177,2.11798,3.177,5.03027
	C98.60215,63.20001,95.42509,71.40729,91.18913,71.40729z M183.05753,69.81879c0,3.70648-4.23602,6.08923-7.14825,6.08923
	c-2.64752,0-6.354-1.32373-5.03027-7.41302l2.11804-10.59003c0.52948-2.11798-0.26477-3.177-1.32373-3.177
	c-1.32379,0-3.44177,1.32379-4.76556,2.64752l-3.17694,15.09076c-0.52954,2.38275-2.64752,3.44177-4.50079,3.44177
	c-1.05896,0-1.85321-0.26477-2.38275-0.79425l4.23602-20.12103c0.26477-0.79425,0-1.32373-0.52948-1.32373
	c-0.17255,0-0.35254,0.11676-0.59839,0.26837c-0.12109,0.21631-0.27472,0.40192-0.46069,0.52588
	c-1.32373,1.05896-3.44177,3.70648-5.55975,5.03027c0,0.26471,0,0.52948,0,0.52948c0,7.9425-7.41302,15.88501-13.76703,15.88501
	c-3.70099,0-5.97485-2.20142-7.01111-5.15253c-2.38599,2.84558-6.01922,5.15253-9.40337,5.15253
	c-2.64746,0-5.55975-1.5885-4.7655-6.354l3.44177-16.14978c0.26477-0.79425-0.26477-1.32379-1.05902-1.32379l-6.88354,0.26477
	l-3.177,14.82605c-0.52948,2.64752,0,3.97125,1.05902,3.97125s2.11798-0.52948,2.91223-2.64752
	c1.05902,0,1.5885,0.52954,1.5885,1.32379c0,3.70648-4.23602,6.08923-7.14825,6.08923c-2.64752,0-6.354-1.5885-5.03027-7.6778
	l3.44177-15.88501h-2.64752c-0.26471-1.5885,0.52954-3.177,2.11804-3.177h1.05902l1.05896-4.23602
	c0.52954-2.38275,2.64752-3.44171,4.50079-3.44171c1.05896,0,1.85321,0.26471,2.38275,0.79425l-1.5885,6.88348h11.38428
	c1.8532,0,2.91222,0.79425,2.64745,2.91223l-3.17693,14.82605c-0.52954,2.91223,0.26471,3.97125,1.58844,3.97125
	c1.68774,0,3.8056-1.09869,5.17187-2.29468c-0.0918-0.63525-0.14166-1.28491-0.14166-1.94128
	c0-7.9425,5.55975-18.00305,13.50226-18.00305c2.64752,0,4.76556,0.79425,6.354,3.177c0,1.32379-1.05896,1.85327-1.85321,1.5885
	c-1.05902-0.26471-2.11804-0.52948-3.44177-0.52948c-4.7655,0-7.9425,7.14825-7.9425,12.17853c0,4.50073,1.5885,6.354,3.44177,6.354
	c2.64746,0,6.08923-3.97125,6.08923-8.73676c0-0.79425,0-1.32379-0.26477-2.11804c-1.05896,0-1.85321-0.26471-2.38275-0.52948
	c-1.05896-2.91223,0-5.55975,3.177-5.55975c1.85327,0,3.44177,0.79425,4.23602,2.38275
	c1.85211-1.15753,3.50183-3.12488,5.4801-4.66272c0.09937-0.33698,0.28674-0.65509,0.60931-0.89703
	c1.85321-1.32379,3.70648-2.64752,5.82446-2.64752c1.85327,0,2.91229,0.79425,2.64752,2.91223l-0.52948,2.38281
	c2.11798-3.17706,5.55975-5.29504,8.73676-5.29504c2.91229,0,4.7655,2.11798,3.70648,7.6778l-2.38281,10.85474
	c-0.52954,2.64752,0,3.97125,1.05896,3.97125s2.11798-0.52948,2.91229-2.64752
	C182.52798,68.495,183.05753,69.02454,183.05753,69.81879z"/>
</svg>
